<svg width="360" height="550" viewBox="0 0 360 550" fill="none" xmlns="http://www.w3.org/2000/svg">
<rect width="360" height="550" fill="white"/>
<path d="M94.0771 500V492.891H96.1768C96.805 492.891 97.3617 493.031 97.8467 493.311C98.335 493.59 98.7126 493.988 98.9795 494.502C99.2464 495.016 99.3799 495.605 99.3799 496.27V496.626C99.3799 497.3 99.2448 497.892 98.9746 498.403C98.7077 498.914 98.3252 499.308 97.8271 499.585C97.3324 499.862 96.7643 500 96.123 500H94.0771ZM95.3125 493.887V499.014H96.1182C96.766 499.014 97.2624 498.812 97.6074 498.408C97.9557 498.001 98.1331 497.419 98.1396 496.66V496.265C98.1396 495.493 97.972 494.904 97.6367 494.497C97.3014 494.09 96.8148 493.887 96.1768 493.887H95.3125ZM102.822 500.098C102.07 500.098 101.46 499.862 100.991 499.39C100.526 498.914 100.293 498.283 100.293 497.495V497.349C100.293 496.821 100.394 496.351 100.596 495.938C100.801 495.521 101.087 495.197 101.455 494.966C101.823 494.735 102.233 494.619 102.686 494.619C103.405 494.619 103.96 494.849 104.351 495.308C104.744 495.767 104.941 496.416 104.941 497.256V497.734H101.489C101.525 498.171 101.67 498.516 101.924 498.77C102.181 499.023 102.503 499.15 102.891 499.15C103.434 499.15 103.877 498.931 104.219 498.491L104.858 499.102C104.647 499.417 104.364 499.663 104.009 499.839C103.657 500.011 103.262 500.098 102.822 500.098ZM102.681 495.571C102.355 495.571 102.091 495.685 101.89 495.913C101.691 496.141 101.564 496.458 101.509 496.865H103.77V496.777C103.743 496.38 103.638 496.081 103.452 495.879C103.267 495.674 103.009 495.571 102.681 495.571ZM108.828 498.564C108.828 498.353 108.74 498.192 108.564 498.081C108.392 497.97 108.104 497.873 107.7 497.788C107.297 497.703 106.96 497.596 106.689 497.466C106.097 497.179 105.801 496.764 105.801 496.221C105.801 495.765 105.993 495.384 106.377 495.078C106.761 494.772 107.249 494.619 107.842 494.619C108.473 494.619 108.983 494.775 109.37 495.088C109.761 495.4 109.956 495.806 109.956 496.304H108.77C108.77 496.076 108.685 495.887 108.516 495.737C108.346 495.584 108.122 495.508 107.842 495.508C107.581 495.508 107.368 495.568 107.202 495.688C107.039 495.809 106.958 495.97 106.958 496.172C106.958 496.354 107.035 496.496 107.188 496.597C107.34 496.698 107.65 496.8 108.115 496.904C108.581 497.005 108.945 497.127 109.209 497.271C109.476 497.41 109.673 497.58 109.8 497.778C109.93 497.977 109.995 498.218 109.995 498.501C109.995 498.976 109.798 499.362 109.404 499.658C109.01 499.951 108.494 500.098 107.856 500.098C107.424 500.098 107.038 500.02 106.699 499.863C106.361 499.707 106.097 499.492 105.908 499.219C105.719 498.945 105.625 498.651 105.625 498.335H106.777C106.794 498.615 106.899 498.831 107.095 498.984C107.29 499.134 107.549 499.209 107.871 499.209C108.184 499.209 108.421 499.15 108.584 499.033C108.747 498.913 108.828 498.757 108.828 498.564ZM113.359 500.098C112.607 500.098 111.997 499.862 111.528 499.39C111.063 498.914 110.83 498.283 110.83 497.495V497.349C110.83 496.821 110.931 496.351 111.133 495.938C111.338 495.521 111.624 495.197 111.992 494.966C112.36 494.735 112.77 494.619 113.223 494.619C113.942 494.619 114.497 494.849 114.888 495.308C115.282 495.767 115.479 496.416 115.479 497.256V497.734H112.026C112.062 498.171 112.207 498.516 112.461 498.77C112.718 499.023 113.04 499.15 113.428 499.15C113.971 499.15 114.414 498.931 114.756 498.491L115.396 499.102C115.184 499.417 114.901 499.663 114.546 499.839C114.194 500.011 113.799 500.098 113.359 500.098ZM113.218 495.571C112.892 495.571 112.629 495.685 112.427 495.913C112.228 496.141 112.101 496.458 112.046 496.865H114.307V496.777C114.281 496.38 114.175 496.081 113.989 495.879C113.804 495.674 113.547 495.571 113.218 495.571ZM117.505 494.717L117.539 495.327C117.93 494.855 118.442 494.619 119.077 494.619C120.177 494.619 120.737 495.249 120.757 496.509V500H119.57V496.577C119.57 496.242 119.497 495.994 119.351 495.835C119.207 495.672 118.971 495.591 118.643 495.591C118.164 495.591 117.808 495.807 117.573 496.24V500H116.387V494.717H117.505ZM123.833 498.496L124.951 494.717H126.177L124.346 500H123.315L121.47 494.717H122.7L123.833 498.496ZM126.621 497.31C126.621 496.792 126.724 496.326 126.929 495.913C127.134 495.496 127.422 495.177 127.793 494.956C128.164 494.731 128.59 494.619 129.072 494.619C129.785 494.619 130.363 494.849 130.806 495.308C131.252 495.767 131.493 496.375 131.528 497.134L131.533 497.412C131.533 497.933 131.432 498.398 131.23 498.809C131.032 499.219 130.745 499.536 130.371 499.761C130 499.985 129.57 500.098 129.082 500.098C128.337 500.098 127.739 499.85 127.29 499.355C126.844 498.857 126.621 498.195 126.621 497.368V497.31ZM127.808 497.412C127.808 497.956 127.92 498.382 128.145 498.691C128.369 498.997 128.682 499.15 129.082 499.15C129.482 499.15 129.793 498.994 130.015 498.682C130.239 498.369 130.352 497.912 130.352 497.31C130.352 496.776 130.236 496.353 130.005 496.04C129.777 495.728 129.466 495.571 129.072 495.571C128.685 495.571 128.377 495.726 128.149 496.035C127.922 496.341 127.808 496.8 127.808 497.412ZM133.799 500H132.612V492.5H133.799V500ZM136.958 498.496L138.076 494.717H139.302L137.471 500H136.44L134.595 494.717H135.825L136.958 498.496ZM141.309 500H140.122V494.717H141.309V500ZM140.049 493.345C140.049 493.162 140.106 493.011 140.22 492.891C140.337 492.77 140.503 492.71 140.718 492.71C140.933 492.71 141.099 492.77 141.216 492.891C141.333 493.011 141.392 493.162 141.392 493.345C141.392 493.524 141.333 493.674 141.216 493.794C141.099 493.911 140.933 493.97 140.718 493.97C140.503 493.97 140.337 493.911 140.22 493.794C140.106 493.674 140.049 493.524 140.049 493.345ZM142.383 497.319C142.383 496.506 142.572 495.853 142.949 495.361C143.327 494.867 143.833 494.619 144.468 494.619C145.028 494.619 145.48 494.814 145.825 495.205V492.5H147.012V500H145.938L145.879 499.453C145.524 499.883 145.05 500.098 144.458 500.098C143.84 500.098 143.338 499.849 142.954 499.351C142.573 498.853 142.383 498.175 142.383 497.319ZM143.569 497.422C143.569 497.959 143.672 498.379 143.877 498.682C144.085 498.981 144.38 499.131 144.761 499.131C145.246 499.131 145.601 498.914 145.825 498.481V496.226C145.607 495.802 145.256 495.591 144.771 495.591C144.386 495.591 144.09 495.744 143.882 496.05C143.674 496.353 143.569 496.81 143.569 497.422ZM148.027 497.31C148.027 496.792 148.13 496.326 148.335 495.913C148.54 495.496 148.828 495.177 149.199 494.956C149.57 494.731 149.997 494.619 150.479 494.619C151.191 494.619 151.769 494.849 152.212 495.308C152.658 495.767 152.899 496.375 152.935 497.134L152.939 497.412C152.939 497.933 152.839 498.398 152.637 498.809C152.438 499.219 152.152 499.536 151.777 499.761C151.406 499.985 150.977 500.098 150.488 500.098C149.743 500.098 149.146 499.85 148.696 499.355C148.25 498.857 148.027 498.195 148.027 497.368V497.31ZM149.214 497.412C149.214 497.956 149.326 498.382 149.551 498.691C149.775 498.997 150.088 499.15 150.488 499.15C150.889 499.15 151.2 498.994 151.421 498.682C151.646 498.369 151.758 497.912 151.758 497.31C151.758 496.776 151.642 496.353 151.411 496.04C151.183 495.728 150.872 495.571 150.479 495.571C150.091 495.571 149.784 495.726 149.556 496.035C149.328 496.341 149.214 496.8 149.214 497.412ZM161.06 497.412C161.06 498.229 160.874 498.882 160.503 499.37C160.132 499.855 159.634 500.098 159.009 500.098C158.429 500.098 157.965 499.907 157.617 499.526V502.031H156.431V494.717H157.524L157.573 495.254C157.922 494.831 158.395 494.619 158.994 494.619C159.639 494.619 160.143 494.86 160.508 495.342C160.876 495.82 161.06 496.486 161.06 497.339V497.412ZM159.878 497.31C159.878 496.782 159.772 496.364 159.561 496.055C159.352 495.745 159.053 495.591 158.662 495.591C158.177 495.591 157.829 495.791 157.617 496.191V498.535C157.832 498.945 158.184 499.15 158.672 499.15C159.049 499.15 159.344 498.999 159.556 498.696C159.771 498.39 159.878 497.928 159.878 497.31ZM161.846 497.31C161.846 496.792 161.948 496.326 162.153 495.913C162.358 495.496 162.646 495.177 163.018 494.956C163.389 494.731 163.815 494.619 164.297 494.619C165.01 494.619 165.588 494.849 166.03 495.308C166.476 495.767 166.717 496.375 166.753 497.134L166.758 497.412C166.758 497.933 166.657 498.398 166.455 498.809C166.257 499.219 165.97 499.536 165.596 499.761C165.225 499.985 164.795 500.098 164.307 500.098C163.561 500.098 162.964 499.85 162.515 499.355C162.069 498.857 161.846 498.195 161.846 497.368V497.31ZM163.032 497.412C163.032 497.956 163.145 498.382 163.369 498.691C163.594 498.997 163.906 499.15 164.307 499.15C164.707 499.15 165.018 498.994 165.239 498.682C165.464 498.369 165.576 497.912 165.576 497.31C165.576 496.776 165.461 496.353 165.229 496.04C165.002 495.728 164.691 495.571 164.297 495.571C163.91 495.571 163.602 495.726 163.374 496.035C163.146 496.341 163.032 496.8 163.032 497.412ZM170.527 495.801C170.371 495.775 170.21 495.762 170.044 495.762C169.5 495.762 169.134 495.97 168.945 496.387V500H167.759V494.717H168.892L168.921 495.308C169.207 494.849 169.604 494.619 170.112 494.619C170.282 494.619 170.422 494.642 170.532 494.688L170.527 495.801ZM175.117 499.014H178.345V500H173.882V492.891H175.117V499.014ZM182.31 499.482C181.961 499.893 181.466 500.098 180.825 500.098C180.252 500.098 179.818 499.93 179.521 499.595C179.229 499.259 179.082 498.774 179.082 498.14V494.717H180.269V498.125C180.269 498.796 180.547 499.131 181.104 499.131C181.68 499.131 182.069 498.924 182.271 498.511V494.717H183.457V500H182.339L182.31 499.482ZM185.928 500H184.741V494.717H185.928V500ZM184.668 493.345C184.668 493.162 184.725 493.011 184.839 492.891C184.956 492.77 185.122 492.71 185.337 492.71C185.552 492.71 185.718 492.77 185.835 492.891C185.952 493.011 186.011 493.162 186.011 493.345C186.011 493.524 185.952 493.674 185.835 493.794C185.718 493.911 185.552 493.97 185.337 493.97C185.122 493.97 184.956 493.911 184.839 493.794C184.725 493.674 184.668 493.524 184.668 493.345ZM190.186 498.564C190.186 498.353 190.098 498.192 189.922 498.081C189.749 497.97 189.461 497.873 189.058 497.788C188.654 497.703 188.317 497.596 188.047 497.466C187.454 497.179 187.158 496.764 187.158 496.221C187.158 495.765 187.35 495.384 187.734 495.078C188.118 494.772 188.607 494.619 189.199 494.619C189.831 494.619 190.34 494.775 190.728 495.088C191.118 495.4 191.313 495.806 191.313 496.304H190.127C190.127 496.076 190.042 495.887 189.873 495.737C189.704 495.584 189.479 495.508 189.199 495.508C188.939 495.508 188.726 495.568 188.56 495.688C188.397 495.809 188.315 495.97 188.315 496.172C188.315 496.354 188.392 496.496 188.545 496.597C188.698 496.698 189.007 496.8 189.473 496.904C189.938 497.005 190.303 497.127 190.566 497.271C190.833 497.41 191.03 497.58 191.157 497.778C191.287 497.977 191.353 498.218 191.353 498.501C191.353 498.976 191.156 499.362 190.762 499.658C190.368 499.951 189.852 500.098 189.214 500.098C188.781 500.098 188.395 500.02 188.057 499.863C187.718 499.707 187.454 499.492 187.266 499.219C187.077 498.945 186.982 498.651 186.982 498.335H188.135C188.151 498.615 188.257 498.831 188.452 498.984C188.647 499.134 188.906 499.209 189.229 499.209C189.541 499.209 189.779 499.15 189.941 499.033C190.104 498.913 190.186 498.757 190.186 498.564ZM199.092 496.987H196.23V500H194.995V492.891H199.512V493.887H196.23V496.001H199.092V496.987ZM202.598 500.098C201.846 500.098 201.235 499.862 200.767 499.39C200.301 498.914 200.068 498.283 200.068 497.495V497.349C200.068 496.821 200.169 496.351 200.371 495.938C200.576 495.521 200.863 495.197 201.23 494.966C201.598 494.735 202.008 494.619 202.461 494.619C203.18 494.619 203.735 494.849 204.126 495.308C204.52 495.767 204.717 496.416 204.717 497.256V497.734H201.265C201.3 498.171 201.445 498.516 201.699 498.77C201.956 499.023 202.279 499.15 202.666 499.15C203.21 499.15 203.652 498.931 203.994 498.491L204.634 499.102C204.422 499.417 204.139 499.663 203.784 499.839C203.433 500.011 203.037 500.098 202.598 500.098ZM202.456 495.571C202.131 495.571 201.867 495.685 201.665 495.913C201.466 496.141 201.34 496.458 201.284 496.865H203.545V496.777C203.519 496.38 203.413 496.081 203.228 495.879C203.042 495.674 202.785 495.571 202.456 495.571ZM208.408 495.801C208.252 495.775 208.091 495.762 207.925 495.762C207.381 495.762 207.015 495.97 206.826 496.387V500H205.64V494.717H206.772L206.802 495.308C207.088 494.849 207.485 494.619 207.993 494.619C208.162 494.619 208.302 494.642 208.413 494.688L208.408 495.801ZM210.259 494.717L210.293 495.327C210.684 494.855 211.196 494.619 211.831 494.619C212.931 494.619 213.491 495.249 213.511 496.509V500H212.324V496.577C212.324 496.242 212.251 495.994 212.104 495.835C211.961 495.672 211.725 495.591 211.396 495.591C210.918 495.591 210.562 495.807 210.327 496.24V500H209.141V494.717H210.259ZM217.881 500C217.829 499.899 217.783 499.735 217.744 499.507C217.367 499.901 216.904 500.098 216.357 500.098C215.827 500.098 215.394 499.946 215.059 499.644C214.723 499.341 214.556 498.966 214.556 498.521C214.556 497.957 214.764 497.526 215.181 497.227C215.601 496.924 216.2 496.772 216.978 496.772H217.705V496.426C217.705 496.152 217.629 495.934 217.476 495.771C217.323 495.605 217.09 495.522 216.777 495.522C216.507 495.522 216.286 495.591 216.113 495.728C215.941 495.861 215.854 496.032 215.854 496.24H214.668C214.668 495.951 214.764 495.68 214.956 495.43C215.148 495.176 215.409 494.977 215.737 494.834C216.069 494.691 216.439 494.619 216.846 494.619C217.464 494.619 217.957 494.775 218.325 495.088C218.693 495.397 218.882 495.833 218.892 496.396V498.779C218.892 499.255 218.958 499.634 219.092 499.917V500H217.881ZM216.577 499.146C216.812 499.146 217.031 499.089 217.236 498.975C217.445 498.861 217.601 498.708 217.705 498.516V497.52H217.065C216.626 497.52 216.296 497.596 216.074 497.749C215.853 497.902 215.742 498.118 215.742 498.398C215.742 498.626 215.817 498.809 215.967 498.945C216.12 499.079 216.323 499.146 216.577 499.146ZM221.235 494.717L221.27 495.327C221.66 494.855 222.173 494.619 222.808 494.619C223.908 494.619 224.468 495.249 224.487 496.509V500H223.301V496.577C223.301 496.242 223.228 495.994 223.081 495.835C222.938 495.672 222.702 495.591 222.373 495.591C221.895 495.591 221.538 495.807 221.304 496.24V500H220.117V494.717H221.235ZM225.479 497.319C225.479 496.506 225.667 495.853 226.045 495.361C226.423 494.867 226.929 494.619 227.563 494.619C228.123 494.619 228.576 494.814 228.921 495.205V492.5H230.107V500H229.033L228.975 499.453C228.62 499.883 228.146 500.098 227.554 500.098C226.935 500.098 226.434 499.849 226.05 499.351C225.669 498.853 225.479 498.175 225.479 497.319ZM226.665 497.422C226.665 497.959 226.768 498.379 226.973 498.682C227.181 498.981 227.476 499.131 227.856 499.131C228.341 499.131 228.696 498.914 228.921 498.481V496.226C228.703 495.802 228.351 495.591 227.866 495.591C227.482 495.591 227.186 495.744 226.978 496.05C226.769 496.353 226.665 496.81 226.665 497.422ZM231.123 497.31C231.123 496.792 231.226 496.326 231.431 495.913C231.636 495.496 231.924 495.177 232.295 494.956C232.666 494.731 233.092 494.619 233.574 494.619C234.287 494.619 234.865 494.849 235.308 495.308C235.754 495.767 235.994 496.375 236.03 497.134L236.035 497.412C236.035 497.933 235.934 498.398 235.732 498.809C235.534 499.219 235.247 499.536 234.873 499.761C234.502 499.985 234.072 500.098 233.584 500.098C232.839 500.098 232.241 499.85 231.792 499.355C231.346 498.857 231.123 498.195 231.123 497.368V497.31ZM232.31 497.412C232.31 497.956 232.422 498.382 232.646 498.691C232.871 498.997 233.184 499.15 233.584 499.15C233.984 499.15 234.295 498.994 234.517 498.682C234.741 498.369 234.854 497.912 234.854 497.31C234.854 496.776 234.738 496.353 234.507 496.04C234.279 495.728 233.968 495.571 233.574 495.571C233.187 495.571 232.879 495.726 232.651 496.035C232.424 496.341 232.31 496.8 232.31 497.412ZM237.207 501.602L236.567 501.221C236.756 500.924 236.885 500.666 236.953 500.444C237.025 500.226 237.062 500.003 237.065 499.775V498.853H238.135L238.13 499.707C238.127 500.052 238.039 500.397 237.866 500.742C237.697 501.09 237.477 501.377 237.207 501.602ZM246.431 500H241.65V499.185L244.019 496.602C244.36 496.221 244.603 495.903 244.746 495.649C244.893 495.392 244.966 495.135 244.966 494.878C244.966 494.539 244.87 494.266 244.678 494.058C244.489 493.849 244.233 493.745 243.911 493.745C243.527 493.745 243.229 493.862 243.018 494.097C242.806 494.331 242.7 494.652 242.7 495.059H241.514C241.514 494.626 241.611 494.237 241.807 493.892C242.005 493.543 242.287 493.273 242.651 493.081C243.019 492.889 243.442 492.793 243.921 492.793C244.611 492.793 245.155 492.967 245.552 493.315C245.952 493.66 246.152 494.139 246.152 494.751C246.152 495.106 246.051 495.479 245.85 495.869C245.651 496.257 245.324 496.698 244.868 497.192L243.13 499.053H246.431V500ZM251.968 497.007C251.968 498.029 251.776 498.8 251.392 499.321C251.011 499.839 250.43 500.098 249.648 500.098C248.88 500.098 248.301 499.845 247.91 499.341C247.523 498.833 247.324 498.083 247.314 497.09V495.859C247.314 494.837 247.505 494.071 247.886 493.56C248.27 493.049 248.854 492.793 249.639 492.793C250.417 492.793 250.996 493.042 251.377 493.54C251.761 494.038 251.958 494.784 251.968 495.776V497.007ZM250.781 495.679C250.781 495.011 250.69 494.523 250.508 494.214C250.326 493.901 250.036 493.745 249.639 493.745C249.251 493.745 248.966 493.893 248.784 494.189C248.602 494.482 248.506 494.941 248.496 495.566V497.178C248.496 497.842 248.589 498.337 248.774 498.662C248.96 498.988 249.251 499.15 249.648 499.15C250.029 499.15 250.311 499.001 250.493 498.701C250.675 498.398 250.771 497.926 250.781 497.285V495.679ZM257.798 500H253.018V499.185L255.386 496.602C255.728 496.221 255.97 495.903 256.113 495.649C256.26 495.392 256.333 495.135 256.333 494.878C256.333 494.539 256.237 494.266 256.045 494.058C255.856 493.849 255.601 493.745 255.278 493.745C254.894 493.745 254.596 493.862 254.385 494.097C254.173 494.331 254.067 494.652 254.067 495.059H252.881C252.881 494.626 252.979 494.237 253.174 493.892C253.372 493.543 253.654 493.273 254.019 493.081C254.386 492.889 254.81 492.793 255.288 492.793C255.978 492.793 256.522 492.967 256.919 493.315C257.319 493.66 257.52 494.139 257.52 494.751C257.52 495.106 257.419 495.479 257.217 495.869C257.018 496.257 256.691 496.698 256.235 497.192L254.497 499.053H257.798V500ZM261.914 500H260.732V494.292L258.989 494.888V493.887L261.763 492.866H261.914V500ZM265.2 498.75C265.422 498.75 265.592 498.813 265.713 498.94C265.833 499.064 265.894 499.22 265.894 499.409C265.894 499.595 265.833 499.749 265.713 499.873C265.592 499.993 265.422 500.054 265.2 500.054C264.989 500.054 264.821 499.993 264.697 499.873C264.574 499.753 264.512 499.598 264.512 499.409C264.512 499.22 264.572 499.064 264.692 498.94C264.813 498.813 264.982 498.75 265.2 498.75Z" fill="#363636"/>
<rect x="30.5" y="388.47" width="299" height="46.0408" rx="23.0204" fill="#249ED2" stroke="#249ED2"/>
<path d="M142.689 414.339C142.535 416.481 141.742 418.168 140.311 419.398C138.889 420.629 137.011 421.244 134.678 421.244C132.126 421.244 130.116 420.387 128.648 418.673C127.19 416.951 126.461 414.59 126.461 411.591V410.375C126.461 408.461 126.798 406.774 127.473 405.316C128.147 403.858 129.109 402.741 130.357 401.966C131.615 401.183 133.074 400.791 134.732 400.791C137.029 400.791 138.88 401.406 140.283 402.636C141.687 403.867 142.498 405.594 142.717 407.818H138.615C138.515 406.533 138.155 405.603 137.535 405.029C136.924 404.446 135.99 404.154 134.732 404.154C133.365 404.154 132.34 404.646 131.656 405.63C130.982 406.606 130.635 408.123 130.617 410.183V411.687C130.617 413.838 130.941 415.41 131.588 416.404C132.244 417.397 133.274 417.894 134.678 417.894C135.945 417.894 136.888 417.607 137.508 417.033C138.137 416.449 138.497 415.552 138.588 414.339H142.689ZM161.734 411.468C161.734 413.428 161.388 415.146 160.695 416.623C160.003 418.099 159.009 419.239 157.715 420.041C156.43 420.843 154.953 421.244 153.285 421.244C151.635 421.244 150.163 420.847 148.869 420.054C147.575 419.261 146.572 418.131 145.861 416.664C145.15 415.187 144.79 413.492 144.781 411.578V410.593C144.781 408.634 145.132 406.911 145.834 405.425C146.545 403.931 147.543 402.787 148.828 401.994C150.122 401.192 151.599 400.791 153.258 400.791C154.917 400.791 156.389 401.192 157.674 401.994C158.968 402.787 159.966 403.931 160.668 405.425C161.379 406.911 161.734 408.629 161.734 410.58V411.468ZM157.578 410.566C157.578 408.479 157.204 406.893 156.457 405.808C155.71 404.724 154.643 404.181 153.258 404.181C151.882 404.181 150.82 404.719 150.072 405.795C149.325 406.861 148.947 408.429 148.938 410.498V411.468C148.938 413.501 149.311 415.078 150.059 416.199C150.806 417.32 151.882 417.88 153.285 417.88C154.661 417.88 155.719 417.343 156.457 416.267C157.195 415.183 157.569 413.606 157.578 411.537V410.566ZM180.902 420.97H176.801L168.816 407.873V420.97H164.715V401.064H168.816L176.814 414.189V401.064H180.902V420.97ZM199.059 404.386H192.961V420.97H188.859V404.386H182.844V401.064H199.059V404.386ZM211.008 416.869H203.816L202.449 420.97H198.088L205.498 401.064H209.299L216.75 420.97H212.389L211.008 416.869ZM204.924 413.546H209.9L207.398 406.095L204.924 413.546ZM225.979 413.683H222.711V420.97H218.609V401.064H226.006C228.357 401.064 230.171 401.588 231.447 402.636C232.723 403.684 233.361 405.166 233.361 407.08C233.361 408.438 233.065 409.573 232.473 410.484C231.889 411.386 231.001 412.106 229.807 412.644L234.113 420.779V420.97H229.711L225.979 413.683ZM222.711 410.361H226.02C227.049 410.361 227.847 410.101 228.412 409.582C228.977 409.053 229.26 408.328 229.26 407.408C229.26 406.469 228.991 405.731 228.453 405.193C227.924 404.655 227.109 404.386 226.006 404.386H222.711V410.361Z" fill="white"/>
<path d="M271.463 299.874H257.818V297.167L264.257 290.304C265.142 289.337 265.793 288.494 266.213 287.774C266.641 287.054 266.855 286.371 266.855 285.723C266.855 284.839 266.632 284.147 266.185 283.645C265.739 283.135 265.101 282.88 264.271 282.88C263.378 282.88 262.672 283.19 262.152 283.809C261.642 284.42 261.386 285.227 261.386 286.229H257.422C257.422 285.017 257.709 283.91 258.283 282.907C258.866 281.904 259.687 281.121 260.744 280.555C261.801 279.981 263 279.694 264.34 279.694C266.39 279.694 267.981 280.186 269.111 281.171C270.25 282.155 270.82 283.545 270.82 285.341C270.82 286.325 270.565 287.328 270.054 288.348C269.544 289.369 268.669 290.559 267.429 291.917L262.904 296.688H271.463V299.874ZM287.295 291.643C287.295 294.396 286.725 296.501 285.586 297.96C284.446 299.418 282.778 300.147 280.582 300.147C278.412 300.147 276.754 299.432 275.605 298.001C274.457 296.57 273.869 294.519 273.841 291.848V288.184C273.841 285.404 274.416 283.294 275.564 281.854C276.722 280.414 278.385 279.694 280.554 279.694C282.724 279.694 284.382 280.41 285.531 281.841C286.679 283.263 287.267 285.309 287.295 287.979V291.643ZM283.343 287.624C283.343 285.974 283.116 284.776 282.66 284.028C282.213 283.272 281.511 282.893 280.554 282.893C279.625 282.893 278.937 283.253 278.49 283.973C278.052 284.684 277.82 285.801 277.793 287.323V292.163C277.793 293.785 278.011 294.993 278.449 295.786C278.896 296.57 279.606 296.962 280.582 296.962C281.548 296.962 282.245 296.583 282.674 295.827C283.102 295.07 283.325 293.913 283.343 292.354V287.624ZM303.373 291.643C303.373 294.396 302.803 296.501 301.664 297.96C300.524 299.418 298.856 300.147 296.66 300.147C294.491 300.147 292.832 299.432 291.683 298.001C290.535 296.57 289.947 294.519 289.92 291.848V288.184C289.92 285.404 290.494 283.294 291.642 281.854C292.8 280.414 294.463 279.694 296.632 279.694C298.802 279.694 300.461 280.41 301.609 281.841C302.757 283.263 303.345 285.309 303.373 287.979V291.643ZM299.422 287.624C299.422 285.974 299.194 284.776 298.738 284.028C298.291 283.272 297.59 282.893 296.632 282.893C295.703 282.893 295.015 283.253 294.568 283.973C294.131 284.684 293.898 285.801 293.871 287.323V292.163C293.871 293.785 294.09 294.993 294.527 295.786C294.974 296.57 295.685 296.962 296.66 296.962C297.626 296.962 298.323 296.583 298.752 295.827C299.18 295.07 299.403 293.913 299.422 292.354V287.624ZM319.697 299.874H306.052V297.167L312.492 290.304C313.376 289.337 314.028 288.494 314.447 287.774C314.875 287.054 315.09 286.371 315.09 285.723C315.09 284.839 314.866 284.147 314.42 283.645C313.973 283.135 313.335 282.88 312.506 282.88C311.612 282.88 310.906 283.19 310.386 283.809C309.876 284.42 309.621 285.227 309.621 286.229H305.656C305.656 285.017 305.943 283.91 306.517 282.907C307.101 281.904 307.921 281.121 308.978 280.555C310.035 279.981 311.234 279.694 312.574 279.694C314.625 279.694 316.215 280.186 317.345 281.171C318.485 282.155 319.054 283.545 319.054 285.341C319.054 286.325 318.799 287.328 318.289 288.348C317.778 289.369 316.903 290.559 315.664 291.917L311.138 296.688H319.697V299.874Z" fill="#363636"/>
<rect x="222.414" y="234.874" width="12.4138" height="111.187" rx="5" fill="#249ED2"/>
<path d="M169.183 299.874H165.232V284.643L160.515 286.106V282.893L168.76 279.94H169.183V299.874ZM189.062 291.643C189.062 294.396 188.493 296.501 187.353 297.96C186.214 299.418 184.546 300.147 182.349 300.147C180.18 300.147 178.521 299.432 177.373 298.001C176.224 296.57 175.637 294.519 175.609 291.848V288.184C175.609 285.404 176.183 283.294 177.332 281.854C178.489 280.414 180.153 279.694 182.322 279.694C184.491 279.694 186.15 280.41 187.299 281.841C188.447 283.263 189.035 285.309 189.062 287.979V291.643ZM185.111 287.624C185.111 285.974 184.883 284.776 184.428 284.028C183.981 283.272 183.279 282.893 182.322 282.893C181.392 282.893 180.704 283.253 180.258 283.973C179.82 284.684 179.588 285.801 179.56 287.323V292.163C179.56 293.785 179.779 294.993 180.217 295.786C180.663 296.57 181.374 296.962 182.349 296.962C183.316 296.962 184.013 296.583 184.441 295.827C184.87 295.07 185.093 293.913 185.111 292.354V287.624Z" fill="#363636"/>
<rect x="113.793" y="234.874" width="12.4138" height="111.187" rx="5" fill="#249ED2"/>
<path d="M64.6096 299.874H50.965V297.167L57.4045 290.304C58.2886 289.337 58.9403 288.494 59.3596 287.774C59.788 287.054 60.0022 286.371 60.0022 285.723C60.0022 284.839 59.7788 284.147 59.3322 283.645C58.8856 283.135 58.2476 282.88 57.4182 282.88C56.5249 282.88 55.8186 283.19 55.299 283.809C54.7886 284.42 54.5334 285.227 54.5334 286.229H50.5686C50.5686 285.017 50.8557 283.91 51.4299 282.907C52.0132 281.904 52.8335 281.121 53.8908 280.555C54.9481 279.981 56.1467 279.694 57.4865 279.694C59.5373 279.694 61.1278 280.186 62.258 281.171C63.3973 282.155 63.967 283.545 63.967 285.341C63.967 286.325 63.7118 287.328 63.2014 288.348C62.691 289.369 61.816 290.559 60.5764 291.917L56.051 296.688H64.6096V299.874ZM80.0178 285.259C80.0178 286.225 79.7762 287.082 79.2932 287.829C78.8101 288.576 78.1447 289.173 77.2971 289.62C78.2632 290.085 79.0288 290.727 79.594 291.548C80.1591 292.359 80.4416 293.316 80.4416 294.419C80.4416 296.187 79.84 297.586 78.6369 298.616C77.4338 299.637 75.7977 300.147 73.7287 300.147C71.6597 300.147 70.0191 299.632 68.8068 298.602C67.5946 297.572 66.9885 296.178 66.9885 294.419C66.9885 293.316 67.271 292.354 67.8361 291.534C68.4012 290.714 69.1623 290.076 70.1193 289.62C69.2717 289.173 68.6063 288.576 68.1232 287.829C67.6493 287.082 67.4123 286.225 67.4123 285.259C67.4123 283.563 67.9774 282.214 69.1076 281.212C70.2378 280.2 71.7736 279.694 73.715 279.694C75.6473 279.694 77.1786 280.195 78.3088 281.198C79.4481 282.192 80.0178 283.545 80.0178 285.259ZM76.4768 294.132C76.4768 293.266 76.2261 292.573 75.7248 292.054C75.2235 291.534 74.549 291.274 73.7014 291.274C72.8628 291.274 72.1929 291.534 71.6916 292.054C71.1903 292.564 70.9397 293.257 70.9397 294.132C70.9397 294.979 71.1857 295.663 71.6779 296.182C72.1701 296.702 72.8537 296.962 73.7287 296.962C74.5855 296.962 75.2554 296.711 75.7385 296.21C76.2307 295.708 76.4768 295.016 76.4768 294.132ZM76.0666 285.45C76.0666 284.675 75.8615 284.055 75.4514 283.591C75.0412 283.117 74.4624 282.88 73.715 282.88C72.9768 282.88 72.4025 283.108 71.9924 283.563C71.5822 284.019 71.3772 284.648 71.3772 285.45C71.3772 286.243 71.5822 286.881 71.9924 287.364C72.4025 287.847 72.9813 288.089 73.7287 288.089C74.4761 288.089 75.0503 287.847 75.4514 287.364C75.8615 286.881 76.0666 286.243 76.0666 285.45Z" fill="#363636"/>
<path d="M125.08 167.918V171.172H124.697C122.911 171.2 121.471 171.664 120.377 172.567C119.292 173.469 118.641 174.722 118.422 176.327C119.479 175.251 120.814 174.713 122.428 174.713C124.16 174.713 125.536 175.333 126.557 176.573C127.577 177.812 128.088 179.444 128.088 181.467C128.088 182.761 127.805 183.933 127.24 184.981C126.684 186.029 125.891 186.845 124.861 187.428C123.84 188.011 122.683 188.303 121.389 188.303C119.292 188.303 117.597 187.574 116.303 186.116C115.018 184.657 114.375 182.711 114.375 180.278V178.856C114.375 176.696 114.781 174.791 115.592 173.141C116.412 171.482 117.583 170.202 119.105 169.299C120.637 168.388 122.41 167.927 124.424 167.918H125.08ZM121.225 177.885C120.587 177.885 120.008 178.054 119.488 178.391C118.969 178.719 118.586 179.157 118.34 179.704V180.907C118.34 182.228 118.6 183.263 119.119 184.01C119.639 184.748 120.368 185.118 121.307 185.118C122.154 185.118 122.838 184.785 123.357 184.12C123.886 183.445 124.15 182.575 124.15 181.508C124.15 180.424 123.886 179.549 123.357 178.883C122.829 178.218 122.118 177.885 121.225 177.885ZM143.975 170.338L136.277 188.03H132.107L139.818 171.323H129.92V168.123H143.975V170.338ZM147.105 178.241L148.254 168.123H159.41V171.418H151.494L151.002 175.698C151.941 175.196 152.939 174.946 153.996 174.946C155.892 174.946 157.378 175.534 158.453 176.709C159.529 177.885 160.066 179.53 160.066 181.645C160.066 182.93 159.793 184.083 159.246 185.104C158.708 186.116 157.934 186.904 156.922 187.469C155.91 188.025 154.716 188.303 153.34 188.303C152.137 188.303 151.02 188.062 149.99 187.579C148.96 187.086 148.145 186.398 147.543 185.514C146.951 184.63 146.636 183.623 146.6 182.493H150.51C150.592 183.322 150.879 183.969 151.371 184.434C151.872 184.89 152.524 185.118 153.326 185.118C154.219 185.118 154.908 184.799 155.391 184.161C155.874 183.513 156.115 182.602 156.115 181.426C156.115 180.296 155.837 179.43 155.281 178.829C154.725 178.227 153.937 177.926 152.916 177.926C151.977 177.926 151.216 178.172 150.633 178.664L150.25 179.02L147.105 178.241ZM174.285 180.537H176.541V183.723H174.285V188.03H170.334V183.723H162.172L161.994 181.235L170.293 168.123H174.285V180.537ZM165.932 180.537H170.334V173.51L170.074 173.961L165.932 180.537ZM186.07 188.03V168.123H192.195C193.945 168.123 195.508 168.52 196.885 169.313C198.27 170.097 199.35 171.218 200.125 172.676C200.9 174.125 201.287 175.775 201.287 177.625V178.541C201.287 180.392 200.904 182.037 200.139 183.477C199.382 184.917 198.311 186.034 196.926 186.827C195.54 187.62 193.977 188.021 192.236 188.03H186.07ZM190.172 171.446V184.735H192.154C193.758 184.735 194.984 184.211 195.832 183.162C196.68 182.114 197.113 180.615 197.131 178.664V177.612C197.131 175.588 196.712 174.057 195.873 173.018C195.035 171.97 193.809 171.446 192.195 171.446H190.172ZM208.643 188.03H204.541V168.123H208.643V188.03ZM223.941 183.928H216.75L215.383 188.03H211.021L218.432 168.123H222.232L229.684 188.03H225.322L223.941 183.928ZM217.857 180.606H222.834L220.332 173.155L217.857 180.606ZM241.865 182.807C241.865 182.032 241.592 181.44 241.045 181.03C240.498 180.61 239.514 180.173 238.092 179.717C236.67 179.252 235.544 178.797 234.715 178.35C232.454 177.129 231.324 175.483 231.324 173.414C231.324 172.339 231.625 171.382 232.227 170.543C232.837 169.696 233.708 169.035 234.838 168.561C235.977 168.087 237.253 167.85 238.666 167.85C240.088 167.85 241.355 168.11 242.467 168.629C243.579 169.14 244.44 169.864 245.051 170.803C245.671 171.742 245.98 172.808 245.98 174.002H241.879C241.879 173.091 241.592 172.384 241.018 171.883C240.443 171.373 239.637 171.118 238.598 171.118C237.595 171.118 236.816 171.332 236.26 171.76C235.704 172.179 235.426 172.735 235.426 173.428C235.426 174.075 235.749 174.618 236.396 175.055C237.053 175.493 238.014 175.903 239.281 176.286C241.615 176.987 243.314 177.858 244.381 178.897C245.447 179.936 245.98 181.23 245.98 182.78C245.98 184.502 245.329 185.856 244.025 186.84C242.722 187.815 240.967 188.303 238.762 188.303C237.23 188.303 235.836 188.025 234.578 187.469C233.32 186.904 232.359 186.134 231.693 185.159C231.037 184.183 230.709 183.053 230.709 181.768H234.824C234.824 183.965 236.137 185.063 238.762 185.063C239.737 185.063 240.498 184.867 241.045 184.475C241.592 184.074 241.865 183.518 241.865 182.807Z" fill="#363636"/>
<path d="M104.367 85.1719C104.305 81.2031 104.227 77.8125 104.133 75C104.07 72.1562 104.008 69.7656 103.945 67.8281C103.883 65.8906 103.805 64.3594 103.711 63.2344C103.648 62.0781 103.602 61.1562 103.57 60.4688C103.539 59.7812 103.508 59.2969 103.477 59.0156C103.445 58.7031 103.43 58.4062 103.43 58.125C103.43 57.5938 103.586 57.2656 103.898 57.1406C104.211 56.9844 104.602 56.9062 105.07 56.9062C105.602 56.9062 106.008 57.0156 106.289 57.2344C106.602 57.4219 106.758 57.9375 106.758 58.7812L107.648 84C107.68 84 107.836 83.9688 108.117 83.9062C108.398 83.8438 108.727 83.75 109.102 83.625C109.477 83.5 109.867 83.375 110.273 83.25C110.68 83.0938 111.008 82.9531 111.258 82.8281C111.633 82.6719 112.195 82.4219 112.945 82.0781C113.695 81.7344 114.539 81.3438 115.477 80.9062C116.414 80.4688 117.398 80.0156 118.43 79.5469C119.492 79.0469 120.492 78.5938 121.43 78.1875C122.398 77.75 123.242 77.3594 123.961 77.0156C124.711 76.6406 125.273 76.375 125.648 76.2188H126.211C126.398 76.2188 126.586 76.2344 126.773 76.2656C126.961 76.2969 127.117 76.375 127.242 76.5C127.367 76.625 127.445 76.8125 127.477 77.0625C127.477 77.375 127.414 77.6406 127.289 77.8594C127.195 78.0781 127.055 78.3281 126.867 78.6094C125.023 78.9531 123.211 79.5781 121.43 80.4844C119.68 81.3906 117.93 82.3281 116.18 83.2969C114.461 84.2656 112.711 85.125 110.93 85.875C109.18 86.625 107.383 87 105.539 87C104.758 87 104.367 86.3906 104.367 85.1719ZM129.82 86.0625C129.82 84.0312 129.773 81.8906 129.68 79.6406C129.617 77.3906 129.539 75.125 129.445 72.8438C129.383 70.5312 129.367 68.2656 129.398 66.0469C129.43 63.8281 129.57 61.75 129.82 59.8125C129.883 59.7812 130.023 59.7656 130.242 59.7656C130.492 59.7344 130.664 59.7188 130.758 59.7188C131.195 59.7188 131.539 59.7969 131.789 59.9531C132.07 60.0781 132.211 60.375 132.211 60.8438C132.211 62.6875 132.195 64.7031 132.164 66.8906C132.164 69.0469 132.148 71.25 132.117 73.5C132.117 75.7188 132.117 77.9219 132.117 80.1094C132.117 82.2969 132.148 84.2812 132.211 86.0625C132.242 86.5938 132.133 86.9375 131.883 87.0938C131.664 87.2812 131.383 87.375 131.039 87.375C130.664 87.375 130.352 87.2812 130.102 87.0938C129.852 86.9375 129.758 86.5938 129.82 86.0625ZM128.789 52.5C128.789 52.125 128.914 51.875 129.164 51.75C129.414 51.625 129.695 51.5625 130.008 51.5625C130.633 51.5625 131.023 51.7656 131.18 52.1719C131.336 52.5781 131.414 53.0469 131.414 53.5781C131.227 53.9219 130.992 54.1719 130.711 54.3281C130.43 54.4531 130.133 54.4844 129.82 54.4219C129.539 54.3281 129.289 54.125 129.07 53.8125C128.883 53.5 128.789 53.0625 128.789 52.5ZM139.148 69.7031C139.023 69.7031 138.836 69.7656 138.586 69.8906C138.336 69.9844 138.07 70.1094 137.789 70.2656C137.539 70.3906 137.289 70.5156 137.039 70.6406C136.789 70.7656 136.57 70.8281 136.383 70.8281C136.07 70.8281 135.789 70.7656 135.539 70.6406C135.32 70.5156 135.211 70.2656 135.211 69.8906C135.211 69.5781 135.352 69.2812 135.633 69C135.945 68.7188 136.305 68.4375 136.711 68.1562C137.117 67.875 137.523 67.6094 137.93 67.3594C138.336 67.1094 138.633 66.8594 138.82 66.6094C138.758 66.1094 138.711 65.1719 138.68 63.7969C138.648 62.4219 138.648 60.8594 138.68 59.1094C138.742 57.3281 138.852 55.5 139.008 53.625C139.195 51.75 139.461 50.0781 139.805 48.6094C140.18 47.1094 140.664 45.9375 141.258 45.0938C141.852 44.25 142.617 43.9844 143.555 44.2969C144.211 44.2969 144.805 44.5 145.336 44.9062C145.867 45.2812 146.32 45.7656 146.695 46.3594C147.07 46.9219 147.352 47.5469 147.539 48.2344C147.758 48.9219 147.867 49.5469 147.867 50.1094C147.867 50.4219 147.789 50.7656 147.633 51.1406C147.508 51.4844 147.258 51.6562 146.883 51.6562H146.742C146.711 51.6562 146.68 51.6406 146.648 51.6094C145.898 49.7031 145.258 48.5 144.727 48C144.227 47.4688 143.789 47.4531 143.414 47.9531C143.07 48.4531 142.773 49.3438 142.523 50.625C142.305 51.9062 142.117 53.3906 141.961 55.0781C141.805 56.7344 141.664 58.5 141.539 60.375C141.414 62.2188 141.289 63.9375 141.164 65.5312C141.789 65.375 142.305 65.2188 142.711 65.0625C143.148 64.9062 143.539 64.75 143.883 64.5938C144.227 64.4062 144.539 64.2344 144.82 64.0781C145.102 63.8906 145.414 63.7344 145.758 63.6094C146.414 63.2969 147.133 63 147.914 62.7188C148.727 62.4062 149.508 62.25 150.258 62.25C150.258 63.1562 150.086 63.9062 149.742 64.5C149.43 65.0938 149.008 65.5781 148.477 65.9531C147.977 66.3281 147.398 66.6094 146.742 66.7969C146.086 66.9531 145.414 67.0938 144.727 67.2188C144.07 67.3438 143.445 67.4688 142.852 67.5938C142.258 67.7188 141.742 67.875 141.305 68.0625C141.398 70.0938 141.523 71.875 141.68 73.4062C141.867 74.9375 142.023 76.2969 142.148 77.4844C142.305 78.6719 142.414 79.7656 142.477 80.7656C142.57 81.7344 142.57 82.7031 142.477 83.6719C142.477 83.8906 142.477 84.2031 142.477 84.6094C142.508 84.9844 142.492 85.3594 142.43 85.7344C142.398 86.1094 142.289 86.4375 142.102 86.7188C141.914 86.9688 141.617 87.0938 141.211 87.0938C140.836 87.0938 140.555 87.0156 140.367 86.8594C140.18 86.6719 140.055 86.3125 139.992 85.7812C139.805 83.25 139.648 81.1094 139.523 79.3594C139.43 77.5781 139.352 76.0938 139.289 74.9062C139.227 73.6875 139.195 72.7344 139.195 72.0469V69.8906C139.195 69.7656 139.18 69.7031 139.148 69.7031ZM153.398 76.875C153.242 76.9062 153.008 76.9531 152.695 77.0156C152.383 77.0781 152.055 77.0938 151.711 77.0625C151.367 77.0312 151.07 76.9375 150.82 76.7812C150.539 76.625 150.398 76.3594 150.398 75.9844C150.398 75.7656 150.445 75.6094 150.539 75.5156C150.633 75.4219 150.789 75.2812 151.008 75.0938C151.695 74.5312 152.273 73.8125 152.742 72.9375C153.242 72.0312 153.695 71.0781 154.102 70.0781C154.508 69.0469 154.93 68.0312 155.367 67.0312C155.836 66 156.367 65.0781 156.961 64.2656C157.555 63.4531 158.289 62.7969 159.164 62.2969C160.039 61.7969 161.117 61.5625 162.398 61.5938C162.93 61.5938 163.523 61.7188 164.18 61.9688C164.836 62.2188 165.445 62.5625 166.008 63C166.57 63.4062 167.039 63.9062 167.414 64.5C167.789 65.0938 167.977 65.75 167.977 66.4688C168.133 66.7188 167.977 67.0781 167.508 67.5469C167.07 68.0156 166.461 68.5312 165.68 69.0938C164.898 69.625 164.008 70.1875 163.008 70.7812C162.039 71.3438 161.102 71.875 160.195 72.375C159.289 72.875 158.492 73.3125 157.805 73.6875C157.117 74.0625 156.664 74.3438 156.445 74.5312C156.289 74.8438 156.164 75.2031 156.07 75.6094C155.977 76.0156 155.898 76.4062 155.836 76.7812C155.805 77.125 155.773 77.4531 155.742 77.7656C155.742 78.0469 155.742 78.2656 155.742 78.4219C155.742 79.0156 155.711 79.6719 155.648 80.3906C155.617 81.1094 155.648 81.7969 155.742 82.4531C155.867 83.0781 156.133 83.6094 156.539 84.0469C156.945 84.4531 157.633 84.6562 158.602 84.6562C159.633 84.6562 160.602 84.4062 161.508 83.9062C162.414 83.375 163.258 82.7344 164.039 81.9844C164.82 81.2344 165.523 80.4219 166.148 79.5469C166.805 78.6719 167.383 77.8594 167.883 77.1094C168.414 76.3281 168.883 75.6875 169.289 75.1875C169.695 74.6875 170.039 74.4375 170.32 74.4375C170.633 74.4375 170.961 74.5 171.305 74.625C171.68 74.7188 171.867 74.9688 171.867 75.375C171.867 75.9375 171.633 76.6094 171.164 77.3906C170.727 78.1719 170.133 79 169.383 79.875C168.664 80.75 167.82 81.625 166.852 82.5C165.914 83.3438 164.961 84.1094 163.992 84.7969C163.023 85.4531 162.07 86 161.133 86.4375C160.195 86.8438 159.367 87.0469 158.648 87.0469C157.242 87.0469 156.18 86.7031 155.461 86.0156C154.742 85.3281 154.227 84.4688 153.914 83.4375C153.633 82.4062 153.477 81.3125 153.445 80.1562C153.445 78.9688 153.43 77.875 153.398 76.875ZM162.023 64.2188C161.492 64.2188 160.93 64.4844 160.336 65.0156C159.742 65.5156 159.18 66.1406 158.648 66.8906C158.148 67.6094 157.727 68.3594 157.383 69.1406C157.07 69.8906 156.914 70.5156 156.914 71.0156C157.383 71.0156 158.055 70.8438 158.93 70.5C159.836 70.125 160.727 69.6719 161.602 69.1406C162.477 68.6094 163.242 68.0469 163.898 67.4531C164.555 66.8594 164.883 66.2969 164.883 65.7656C164.883 65.4844 164.773 65.25 164.555 65.0625C164.336 64.875 164.07 64.7188 163.758 64.5938C163.477 64.4688 163.18 64.375 162.867 64.3125C162.555 64.25 162.273 64.2188 162.023 64.2188ZM187.102 57.6094C186.102 57.6094 185.086 57.7031 184.055 57.8906C183.055 58.0781 182.055 58.2969 181.055 58.5469C180.055 58.7656 179.055 58.9688 178.055 59.1562C177.055 59.3438 176.039 59.4375 175.008 59.4375C174.695 59.4375 174.367 59.4062 174.023 59.3438C173.711 59.25 173.555 58.9688 173.555 58.5C173.555 58.1875 173.68 57.875 173.93 57.5625C174.211 57.2188 174.508 57.0312 174.82 57L187.383 55.1719C187.414 55.0469 187.461 54.8594 187.523 54.6094C187.586 54.3281 187.664 54.0625 187.758 53.8125C187.883 53.5312 188.039 53.2969 188.227 53.1094C188.414 52.8906 188.633 52.7812 188.883 52.7812C189.258 52.7812 189.555 52.875 189.773 53.0625C189.992 53.25 190.18 53.4688 190.336 53.7188C190.492 53.9375 190.633 54.1406 190.758 54.3281C190.883 54.5156 191.039 54.6094 191.227 54.6094H191.602C191.914 54.5781 192.414 54.5312 193.102 54.4688C193.789 54.375 194.57 54.2812 195.445 54.1875C196.352 54.0938 197.305 54 198.305 53.9062C199.305 53.7812 200.258 53.6875 201.164 53.625C202.07 53.5312 202.867 53.4531 203.555 53.3906C204.242 53.2969 204.742 53.2188 205.055 53.1562C205.148 53.1562 205.367 53.1562 205.711 53.1562C206.086 53.125 206.352 53.1094 206.508 53.1094C206.508 53.7031 206.18 54.2031 205.523 54.6094C204.898 54.9844 204.086 55.3125 203.086 55.5938C202.117 55.8438 201.023 56.0469 199.805 56.2031C198.617 56.3281 197.445 56.4375 196.289 56.5312C195.164 56.625 194.117 56.7031 193.148 56.7656C192.211 56.8281 191.492 56.9062 190.992 57C190.867 59.2188 190.914 61.5312 191.133 63.9375C191.383 66.3438 191.68 68.7656 192.023 71.2031C192.398 73.6406 192.742 76.0625 193.055 78.4688C193.367 80.875 193.523 83.1719 193.523 85.3594C193.648 85.7969 193.695 86.1406 193.664 86.3906C193.664 86.6406 193.586 86.8125 193.43 86.9062C193.273 87 193.039 87.0469 192.727 87.0469C192.414 87.0469 192.039 87.0312 191.602 87C191.289 85.875 191.008 84.5625 190.758 83.0625C190.539 81.5312 190.336 79.9062 190.148 78.1875C189.961 76.4375 189.773 74.6406 189.586 72.7969C189.43 70.9531 189.273 69.125 189.117 67.3125C188.961 65.5 188.789 63.7656 188.602 62.1094C188.414 60.4531 188.195 58.9531 187.945 57.6094H187.102ZM203.555 86.0625C203.555 84.0312 203.508 81.8906 203.414 79.6406C203.352 77.3906 203.273 75.125 203.18 72.8438C203.117 70.5312 203.102 68.2656 203.133 66.0469C203.164 63.8281 203.305 61.75 203.555 59.8125C203.617 59.7812 203.758 59.7656 203.977 59.7656C204.227 59.7344 204.398 59.7188 204.492 59.7188C204.93 59.7188 205.273 59.7969 205.523 59.9531C205.805 60.0781 205.945 60.375 205.945 60.8438C205.945 62.6875 205.93 64.7031 205.898 66.8906C205.898 69.0469 205.883 71.25 205.852 73.5C205.852 75.7188 205.852 77.9219 205.852 80.1094C205.852 82.2969 205.883 84.2812 205.945 86.0625C205.977 86.5938 205.867 86.9375 205.617 87.0938C205.398 87.2812 205.117 87.375 204.773 87.375C204.398 87.375 204.086 87.2812 203.836 87.0938C203.586 86.9375 203.492 86.5938 203.555 86.0625ZM202.523 52.5C202.523 52.125 202.648 51.875 202.898 51.75C203.148 51.625 203.43 51.5625 203.742 51.5625C204.367 51.5625 204.758 51.7656 204.914 52.1719C205.07 52.5781 205.148 53.0469 205.148 53.5781C204.961 53.9219 204.727 54.1719 204.445 54.3281C204.164 54.4531 203.867 54.4844 203.555 54.4219C203.273 54.3281 203.023 54.125 202.805 53.8125C202.617 53.5 202.523 53.0625 202.523 52.5ZM211.055 86.8594C210.961 85.9844 210.883 84.7969 210.82 83.2969C210.758 81.7969 210.695 80.1719 210.633 78.4219C210.57 76.6406 210.492 74.7969 210.398 72.8906C210.336 70.9844 210.258 69.1719 210.164 67.4531C210.07 65.7344 209.945 64.1719 209.789 62.7656C209.664 61.3594 209.523 60.2344 209.367 59.3906C209.367 58.7656 209.508 58.4062 209.789 58.3125C210.07 58.1875 210.43 58.125 210.867 58.125C210.93 58.125 211.07 58.125 211.289 58.125C211.508 58.125 211.664 58.1406 211.758 58.1719C212.039 59.1094 212.211 60.3281 212.273 61.8281C212.367 63.2969 212.43 64.9062 212.461 66.6562C212.523 68.4062 212.57 70.2188 212.602 72.0938C212.664 73.9688 212.773 75.75 212.93 77.4375C213.367 74.9688 213.727 72.9219 214.008 71.2969C214.32 69.6719 214.602 68.375 214.852 67.4062C215.133 66.4062 215.383 65.6719 215.602 65.2031C215.852 64.7031 216.117 64.375 216.398 64.2188C216.711 64.0625 217.039 64 217.383 64.0312C217.758 64.0312 218.195 64.0312 218.695 64.0312C219.258 64.0312 219.711 64.25 220.055 64.6875C220.43 65.125 220.711 65.6875 220.898 66.375C221.117 67.0625 221.273 67.8125 221.367 68.625C221.492 69.4375 221.602 70.2344 221.695 71.0156C221.789 71.7656 221.883 72.4531 221.977 73.0781C222.102 73.7031 222.289 74.1406 222.539 74.3906C223.32 72.0781 223.992 70.1875 224.555 68.7188C225.117 67.25 225.602 66.0938 226.008 65.25C226.414 64.375 226.773 63.75 227.086 63.375C227.398 63 227.68 62.7812 227.93 62.7188C228.18 62.625 228.398 62.6094 228.586 62.6719C228.805 62.7344 229.023 62.7656 229.242 62.7656C230.086 62.7656 230.727 63.2031 231.164 64.0781C231.664 65.4844 232.008 66.8281 232.195 68.1094C232.383 69.3594 232.492 70.5781 232.523 71.7656C232.555 72.9219 232.555 74.0312 232.523 75.0938C232.523 76.1562 232.555 77.1875 232.617 78.1875C232.711 79.1875 232.883 80.1719 233.133 81.1406C233.414 82.1094 233.883 83.0625 234.539 84C234.289 84.5 234.039 84.8438 233.789 85.0312C233.539 85.1875 233.195 85.2656 232.758 85.2656C232.383 85.2656 232.055 85.1406 231.773 84.8906C231.492 84.6094 231.258 84.2812 231.07 83.9062C230.883 83.5 230.727 83.0938 230.602 82.6875C230.508 82.2812 230.414 81.9219 230.32 81.6094C230.195 77.1406 229.992 73.7188 229.711 71.3438C229.461 68.9375 229.07 67.6719 228.539 67.5469C228.008 67.4219 227.32 68.4688 226.477 70.6875C225.664 72.875 224.648 76.3125 223.43 81C223.336 81.1562 223.195 81.25 223.008 81.2812C222.82 81.3125 222.617 81.3281 222.398 81.3281C222.211 81.3281 222.008 81.3281 221.789 81.3281C221.602 81.2969 221.414 81.2969 221.227 81.3281C220.445 76.7344 219.789 73.4375 219.258 71.4375C218.758 69.4062 218.242 68.625 217.711 69.0938C217.18 69.5625 216.586 71.25 215.93 74.1562C215.273 77.0312 214.43 81.0781 213.398 86.2969L211.055 86.8594ZM238.336 76.875C238.18 76.9062 237.945 76.9531 237.633 77.0156C237.32 77.0781 236.992 77.0938 236.648 77.0625C236.305 77.0312 236.008 76.9375 235.758 76.7812C235.477 76.625 235.336 76.3594 235.336 75.9844C235.336 75.7656 235.383 75.6094 235.477 75.5156C235.57 75.4219 235.727 75.2812 235.945 75.0938C236.633 74.5312 237.211 73.8125 237.68 72.9375C238.18 72.0312 238.633 71.0781 239.039 70.0781C239.445 69.0469 239.867 68.0312 240.305 67.0312C240.773 66 241.305 65.0781 241.898 64.2656C242.492 63.4531 243.227 62.7969 244.102 62.2969C244.977 61.7969 246.055 61.5625 247.336 61.5938C247.867 61.5938 248.461 61.7188 249.117 61.9688C249.773 62.2188 250.383 62.5625 250.945 63C251.508 63.4062 251.977 63.9062 252.352 64.5C252.727 65.0938 252.914 65.75 252.914 66.4688C253.07 66.7188 252.914 67.0781 252.445 67.5469C252.008 68.0156 251.398 68.5312 250.617 69.0938C249.836 69.625 248.945 70.1875 247.945 70.7812C246.977 71.3438 246.039 71.875 245.133 72.375C244.227 72.875 243.43 73.3125 242.742 73.6875C242.055 74.0625 241.602 74.3438 241.383 74.5312C241.227 74.8438 241.102 75.2031 241.008 75.6094C240.914 76.0156 240.836 76.4062 240.773 76.7812C240.742 77.125 240.711 77.4531 240.68 77.7656C240.68 78.0469 240.68 78.2656 240.68 78.4219C240.68 79.0156 240.648 79.6719 240.586 80.3906C240.555 81.1094 240.586 81.7969 240.68 82.4531C240.805 83.0781 241.07 83.6094 241.477 84.0469C241.883 84.4531 242.57 84.6562 243.539 84.6562C244.57 84.6562 245.539 84.4062 246.445 83.9062C247.352 83.375 248.195 82.7344 248.977 81.9844C249.758 81.2344 250.461 80.4219 251.086 79.5469C251.742 78.6719 252.32 77.8594 252.82 77.1094C253.352 76.3281 253.82 75.6875 254.227 75.1875C254.633 74.6875 254.977 74.4375 255.258 74.4375C255.57 74.4375 255.898 74.5 256.242 74.625C256.617 74.7188 256.805 74.9688 256.805 75.375C256.805 75.9375 256.57 76.6094 256.102 77.3906C255.664 78.1719 255.07 79 254.32 79.875C253.602 80.75 252.758 81.625 251.789 82.5C250.852 83.3438 249.898 84.1094 248.93 84.7969C247.961 85.4531 247.008 86 246.07 86.4375C245.133 86.8438 244.305 87.0469 243.586 87.0469C242.18 87.0469 241.117 86.7031 240.398 86.0156C239.68 85.3281 239.164 84.4688 238.852 83.4375C238.57 82.4062 238.414 81.3125 238.383 80.1562C238.383 78.9688 238.367 77.875 238.336 76.875ZM246.961 64.2188C246.43 64.2188 245.867 64.4844 245.273 65.0156C244.68 65.5156 244.117 66.1406 243.586 66.8906C243.086 67.6094 242.664 68.3594 242.32 69.1406C242.008 69.8906 241.852 70.5156 241.852 71.0156C242.32 71.0156 242.992 70.8438 243.867 70.5C244.773 70.125 245.664 69.6719 246.539 69.1406C247.414 68.6094 248.18 68.0469 248.836 67.4531C249.492 66.8594 249.82 66.2969 249.82 65.7656C249.82 65.4844 249.711 65.25 249.492 65.0625C249.273 64.875 249.008 64.7188 248.695 64.5938C248.414 64.4688 248.117 64.375 247.805 64.3125C247.492 64.25 247.211 64.2188 246.961 64.2188Z" fill="#249ED2"/>
<path d="M233.805 106V97.4688H236.43C237.18 97.4688 237.85 97.6387 238.439 97.9785C239.033 98.3145 239.496 98.7949 239.828 99.4199C240.16 100.041 240.326 100.748 240.326 101.541V101.934C240.326 102.727 240.162 103.432 239.834 104.049C239.51 104.666 239.051 105.145 238.457 105.484C237.863 105.824 237.193 105.996 236.447 106H233.805ZM235.562 98.8926V104.588H236.412C237.1 104.588 237.625 104.363 237.988 103.914C238.352 103.465 238.537 102.822 238.545 101.986V101.535C238.545 100.668 238.365 100.012 238.006 99.5664C237.646 99.1172 237.121 98.8926 236.43 98.8926H235.562ZM245.172 106C245.094 105.848 245.037 105.658 245.002 105.432C244.592 105.889 244.059 106.117 243.402 106.117C242.781 106.117 242.266 105.938 241.855 105.578C241.449 105.219 241.246 104.766 241.246 104.219C241.246 103.547 241.494 103.031 241.99 102.672C242.49 102.312 243.211 102.131 244.152 102.127H244.932V101.764C244.932 101.471 244.855 101.236 244.703 101.061C244.555 100.885 244.318 100.797 243.994 100.797C243.709 100.797 243.484 100.865 243.32 101.002C243.16 101.139 243.08 101.326 243.08 101.564H241.387C241.387 101.197 241.5 100.857 241.727 100.545C241.953 100.232 242.273 99.9883 242.688 99.8125C243.102 99.6328 243.566 99.543 244.082 99.543C244.863 99.543 245.482 99.7402 245.939 100.135C246.4 100.525 246.631 101.076 246.631 101.787V104.535C246.635 105.137 246.719 105.592 246.883 105.9V106H245.172ZM243.771 104.822C244.021 104.822 244.252 104.768 244.463 104.658C244.674 104.545 244.83 104.395 244.932 104.207V103.117H244.299C243.451 103.117 243 103.41 242.945 103.996L242.939 104.096C242.939 104.307 243.014 104.48 243.162 104.617C243.311 104.754 243.514 104.822 243.771 104.822ZM249.959 98.1016V99.6602H251.043V100.902H249.959V104.066C249.959 104.301 250.004 104.469 250.094 104.57C250.184 104.672 250.355 104.723 250.609 104.723C250.797 104.723 250.963 104.709 251.107 104.682V105.965C250.775 106.066 250.434 106.117 250.082 106.117C248.895 106.117 248.289 105.518 248.266 104.318V100.902H247.34V99.6602H248.266V98.1016H249.959ZM255.66 106C255.582 105.848 255.525 105.658 255.49 105.432C255.08 105.889 254.547 106.117 253.891 106.117C253.27 106.117 252.754 105.938 252.344 105.578C251.938 105.219 251.734 104.766 251.734 104.219C251.734 103.547 251.982 103.031 252.479 102.672C252.979 102.312 253.699 102.131 254.641 102.127H255.42V101.764C255.42 101.471 255.344 101.236 255.191 101.061C255.043 100.885 254.807 100.797 254.482 100.797C254.197 100.797 253.973 100.865 253.809 101.002C253.648 101.139 253.568 101.326 253.568 101.564H251.875C251.875 101.197 251.988 100.857 252.215 100.545C252.441 100.232 252.762 99.9883 253.176 99.8125C253.59 99.6328 254.055 99.543 254.57 99.543C255.352 99.543 255.971 99.7402 256.428 100.135C256.889 100.525 257.119 101.076 257.119 101.787V104.535C257.123 105.137 257.207 105.592 257.371 105.9V106H255.66ZM254.26 104.822C254.51 104.822 254.74 104.768 254.951 104.658C255.162 104.545 255.318 104.395 255.42 104.207V103.117H254.787C253.939 103.117 253.488 103.41 253.434 103.996L253.428 104.096C253.428 104.307 253.502 104.48 253.65 104.617C253.799 104.754 254.002 104.822 254.26 104.822ZM265.082 106C265.004 105.848 264.947 105.658 264.912 105.432C264.502 105.889 263.969 106.117 263.312 106.117C262.691 106.117 262.176 105.938 261.766 105.578C261.359 105.219 261.156 104.766 261.156 104.219C261.156 103.547 261.404 103.031 261.9 102.672C262.4 102.312 263.121 102.131 264.062 102.127H264.842V101.764C264.842 101.471 264.766 101.236 264.613 101.061C264.465 100.885 264.229 100.797 263.904 100.797C263.619 100.797 263.395 100.865 263.23 101.002C263.07 101.139 262.99 101.326 262.99 101.564H261.297C261.297 101.197 261.41 100.857 261.637 100.545C261.863 100.232 262.184 99.9883 262.598 99.8125C263.012 99.6328 263.477 99.543 263.992 99.543C264.773 99.543 265.393 99.7402 265.85 100.135C266.311 100.525 266.541 101.076 266.541 101.787V104.535C266.545 105.137 266.629 105.592 266.793 105.9V106H265.082ZM263.682 104.822C263.932 104.822 264.162 104.768 264.373 104.658C264.584 104.545 264.74 104.395 264.842 104.207V103.117H264.209C263.361 103.117 262.91 103.41 262.855 103.996L262.85 104.096C262.85 104.307 262.924 104.48 263.072 104.617C263.221 104.754 263.424 104.822 263.682 104.822ZM269.869 98.1016V99.6602H270.953V100.902H269.869V104.066C269.869 104.301 269.914 104.469 270.004 104.57C270.094 104.672 270.266 104.723 270.52 104.723C270.707 104.723 270.873 104.709 271.018 104.682V105.965C270.686 106.066 270.344 106.117 269.992 106.117C268.805 106.117 268.199 105.518 268.176 104.318V100.902H267.25V99.6602H268.176V98.1016H269.869ZM275.693 105.355C275.275 105.863 274.697 106.117 273.959 106.117C273.279 106.117 272.76 105.922 272.4 105.531C272.045 105.141 271.863 104.568 271.855 103.814V99.6602H273.549V103.756C273.549 104.416 273.85 104.746 274.451 104.746C275.025 104.746 275.42 104.547 275.635 104.148V99.6602H277.334V106H275.74L275.693 105.355ZM282.285 106C282.207 105.848 282.15 105.658 282.115 105.432C281.705 105.889 281.172 106.117 280.516 106.117C279.895 106.117 279.379 105.938 278.969 105.578C278.562 105.219 278.359 104.766 278.359 104.219C278.359 103.547 278.607 103.031 279.104 102.672C279.604 102.312 280.324 102.131 281.266 102.127H282.045V101.764C282.045 101.471 281.969 101.236 281.816 101.061C281.668 100.885 281.432 100.797 281.107 100.797C280.822 100.797 280.598 100.865 280.434 101.002C280.273 101.139 280.193 101.326 280.193 101.564H278.5C278.5 101.197 278.613 100.857 278.84 100.545C279.066 100.232 279.387 99.9883 279.801 99.8125C280.215 99.6328 280.68 99.543 281.195 99.543C281.977 99.543 282.596 99.7402 283.053 100.135C283.514 100.525 283.744 101.076 283.744 101.787V104.535C283.748 105.137 283.832 105.592 283.996 105.9V106H282.285ZM280.885 104.822C281.135 104.822 281.365 104.768 281.576 104.658C281.787 104.545 281.943 104.395 282.045 104.207V103.117H281.412C280.564 103.117 280.113 103.41 280.059 103.996L280.053 104.096C280.053 104.307 280.127 104.48 280.275 104.617C280.424 104.754 280.627 104.822 280.885 104.822ZM286.832 106H285.133V97H286.832V106ZM288.314 105.168C288.314 104.898 288.404 104.68 288.584 104.512C288.768 104.344 288.996 104.26 289.27 104.26C289.547 104.26 289.775 104.344 289.955 104.512C290.139 104.68 290.23 104.898 290.23 105.168C290.23 105.434 290.141 105.65 289.961 105.818C289.781 105.982 289.551 106.064 289.27 106.064C288.992 106.064 288.764 105.982 288.584 105.818C288.404 105.65 288.314 105.434 288.314 105.168ZM288.314 100.369C288.314 100.1 288.404 99.8809 288.584 99.7129C288.768 99.5449 288.996 99.4609 289.27 99.4609C289.547 99.4609 289.775 99.5449 289.955 99.7129C290.139 99.8809 290.23 100.1 290.23 100.369C290.23 100.635 290.141 100.852 289.961 101.02C289.781 101.184 289.551 101.266 289.27 101.266C288.992 101.266 288.764 101.184 288.584 101.02C288.404 100.852 288.314 100.635 288.314 100.369ZM237.877 120H232.029V118.84L234.789 115.898C235.168 115.484 235.447 115.123 235.627 114.814C235.811 114.506 235.902 114.213 235.902 113.936C235.902 113.557 235.807 113.26 235.615 113.045C235.424 112.826 235.15 112.717 234.795 112.717C234.412 112.717 234.109 112.85 233.887 113.115C233.668 113.377 233.559 113.723 233.559 114.152H231.859C231.859 113.633 231.982 113.158 232.229 112.729C232.479 112.299 232.83 111.963 233.283 111.721C233.736 111.475 234.25 111.352 234.824 111.352C235.703 111.352 236.385 111.562 236.869 111.984C237.357 112.406 237.602 113.002 237.602 113.771C237.602 114.193 237.492 114.623 237.273 115.061C237.055 115.498 236.68 116.008 236.148 116.59L234.209 118.635H237.877V120ZM243.033 120H241.34V113.473L239.318 114.1V112.723L242.852 111.457H243.033V120ZM246.414 120.732H245.154L248.295 111.469H249.555L246.414 120.732ZM256.041 116.473C256.041 117.652 255.797 118.555 255.309 119.18C254.82 119.805 254.105 120.117 253.164 120.117C252.234 120.117 251.523 119.811 251.031 119.197C250.539 118.584 250.287 117.705 250.275 116.561V114.99C250.275 113.799 250.521 112.895 251.014 112.277C251.51 111.66 252.223 111.352 253.152 111.352C254.082 111.352 254.793 111.658 255.285 112.271C255.777 112.881 256.029 113.758 256.041 114.902V116.473ZM254.348 114.75C254.348 114.043 254.25 113.529 254.055 113.209C253.863 112.885 253.562 112.723 253.152 112.723C252.754 112.723 252.459 112.877 252.268 113.186C252.08 113.49 251.98 113.969 251.969 114.621V116.695C251.969 117.391 252.062 117.908 252.25 118.248C252.441 118.584 252.746 118.752 253.164 118.752C253.578 118.752 253.877 118.59 254.061 118.266C254.244 117.941 254.34 117.445 254.348 116.777V114.75ZM262.199 116.789H263.166V118.154H262.199V120H260.506V118.154H257.008L256.932 117.088L260.488 111.469H262.199V116.789ZM258.619 116.789H260.506V113.777L260.395 113.971L258.619 116.789ZM264.684 120.732H263.424L266.564 111.469H267.824L264.684 120.732ZM274.416 120H268.568V118.84L271.328 115.898C271.707 115.484 271.986 115.123 272.166 114.814C272.35 114.506 272.441 114.213 272.441 113.936C272.441 113.557 272.346 113.26 272.154 113.045C271.963 112.826 271.689 112.717 271.334 112.717C270.951 112.717 270.648 112.85 270.426 113.115C270.207 113.377 270.098 113.723 270.098 114.152H268.398C268.398 113.633 268.521 113.158 268.768 112.729C269.018 112.299 269.369 111.963 269.822 111.721C270.275 111.475 270.789 111.352 271.363 111.352C272.242 111.352 272.924 111.562 273.408 111.984C273.896 112.406 274.141 113.002 274.141 113.771C274.141 114.193 274.031 114.623 273.812 115.061C273.594 115.498 273.219 116.008 272.688 116.59L270.748 118.635H274.416V120ZM281.201 116.473C281.201 117.652 280.957 118.555 280.469 119.18C279.98 119.805 279.266 120.117 278.324 120.117C277.395 120.117 276.684 119.811 276.191 119.197C275.699 118.584 275.447 117.705 275.436 116.561V114.99C275.436 113.799 275.682 112.895 276.174 112.277C276.67 111.66 277.383 111.352 278.312 111.352C279.242 111.352 279.953 111.658 280.445 112.271C280.938 112.881 281.189 113.758 281.201 114.902V116.473ZM279.508 114.75C279.508 114.043 279.41 113.529 279.215 113.209C279.023 112.885 278.723 112.723 278.312 112.723C277.914 112.723 277.619 112.877 277.428 113.186C277.24 113.49 277.141 113.969 277.129 114.621V116.695C277.129 117.391 277.223 117.908 277.41 118.248C277.602 118.584 277.906 118.752 278.324 118.752C278.738 118.752 279.037 118.59 279.221 118.266C279.404 117.941 279.5 117.445 279.508 116.777V114.75ZM288.197 120H282.35V118.84L285.109 115.898C285.488 115.484 285.768 115.123 285.947 114.814C286.131 114.506 286.223 114.213 286.223 113.936C286.223 113.557 286.127 113.26 285.936 113.045C285.744 112.826 285.471 112.717 285.115 112.717C284.732 112.717 284.43 112.85 284.207 113.115C283.988 113.377 283.879 113.723 283.879 114.152H282.18C282.18 113.633 282.303 113.158 282.549 112.729C282.799 112.299 283.15 111.963 283.604 111.721C284.057 111.475 284.57 111.352 285.145 111.352C286.023 111.352 286.705 111.562 287.189 111.984C287.678 112.406 287.922 113.002 287.922 113.771C287.922 114.193 287.812 114.623 287.594 115.061C287.375 115.498 287 116.008 286.469 116.59L284.529 118.635H288.197V120ZM293.354 120H291.66V113.473L289.639 114.1V112.723L293.172 111.457H293.354V120Z" fill="#363636"/>
<path d="M194.734 111.059H188.137V108.328H194.734V111.059Z" fill="#363636"/>
<path d="M58.5664 106V97.4688H61.1914C61.9414 97.4688 62.6113 97.6387 63.2012 97.9785C63.7949 98.3145 64.2578 98.7949 64.5898 99.4199C64.9219 100.041 65.0879 100.748 65.0879 101.541V101.934C65.0879 102.727 64.9238 103.432 64.5957 104.049C64.2715 104.666 63.8125 105.145 63.2188 105.484C62.625 105.824 61.9551 105.996 61.209 106H58.5664ZM60.3242 98.8926V104.588H61.1738C61.8613 104.588 62.3867 104.363 62.75 103.914C63.1133 103.465 63.2988 102.822 63.3066 101.986V101.535C63.3066 100.668 63.127 100.012 62.7676 99.5664C62.4082 99.1172 61.8828 98.8926 61.1914 98.8926H60.3242ZM69.9336 106C69.8555 105.848 69.7988 105.658 69.7637 105.432C69.3535 105.889 68.8203 106.117 68.1641 106.117C67.543 106.117 67.0273 105.938 66.6172 105.578C66.2109 105.219 66.0078 104.766 66.0078 104.219C66.0078 103.547 66.2559 103.031 66.752 102.672C67.252 102.312 67.9727 102.131 68.9141 102.127H69.6934V101.764C69.6934 101.471 69.6172 101.236 69.4648 101.061C69.3164 100.885 69.0801 100.797 68.7559 100.797C68.4707 100.797 68.2461 100.865 68.082 101.002C67.9219 101.139 67.8418 101.326 67.8418 101.564H66.1484C66.1484 101.197 66.2617 100.857 66.4883 100.545C66.7148 100.232 67.0352 99.9883 67.4492 99.8125C67.8633 99.6328 68.3281 99.543 68.8438 99.543C69.625 99.543 70.2441 99.7402 70.7012 100.135C71.1621 100.525 71.3926 101.076 71.3926 101.787V104.535C71.3965 105.137 71.4805 105.592 71.6445 105.9V106H69.9336ZM68.5332 104.822C68.7832 104.822 69.0137 104.768 69.2246 104.658C69.4355 104.545 69.5918 104.395 69.6934 104.207V103.117H69.0605C68.2129 103.117 67.7617 103.41 67.707 103.996L67.7012 104.096C67.7012 104.307 67.7754 104.48 67.9238 104.617C68.0723 104.754 68.2754 104.822 68.5332 104.822ZM74.7207 98.1016V99.6602H75.8047V100.902H74.7207V104.066C74.7207 104.301 74.7656 104.469 74.8555 104.57C74.9453 104.672 75.1172 104.723 75.3711 104.723C75.5586 104.723 75.7246 104.709 75.8691 104.682V105.965C75.5371 106.066 75.1953 106.117 74.8438 106.117C73.6562 106.117 73.0508 105.518 73.0273 104.318V100.902H72.1016V99.6602H73.0273V98.1016H74.7207ZM80.4219 106C80.3438 105.848 80.2871 105.658 80.252 105.432C79.8418 105.889 79.3086 106.117 78.6523 106.117C78.0312 106.117 77.5156 105.938 77.1055 105.578C76.6992 105.219 76.4961 104.766 76.4961 104.219C76.4961 103.547 76.7441 103.031 77.2402 102.672C77.7402 102.312 78.4609 102.131 79.4023 102.127H80.1816V101.764C80.1816 101.471 80.1055 101.236 79.9531 101.061C79.8047 100.885 79.5684 100.797 79.2441 100.797C78.959 100.797 78.7344 100.865 78.5703 101.002C78.4102 101.139 78.3301 101.326 78.3301 101.564H76.6367C76.6367 101.197 76.75 100.857 76.9766 100.545C77.2031 100.232 77.5234 99.9883 77.9375 99.8125C78.3516 99.6328 78.8164 99.543 79.332 99.543C80.1133 99.543 80.7324 99.7402 81.1895 100.135C81.6504 100.525 81.8809 101.076 81.8809 101.787V104.535C81.8848 105.137 81.9688 105.592 82.1328 105.9V106H80.4219ZM79.0215 104.822C79.2715 104.822 79.502 104.768 79.7129 104.658C79.9238 104.545 80.0801 104.395 80.1816 104.207V103.117H79.5488C78.7012 103.117 78.25 103.41 78.1953 103.996L78.1895 104.096C78.1895 104.307 78.2637 104.48 78.4121 104.617C78.5605 104.754 78.7637 104.822 79.0215 104.822ZM85.9062 102.783C85.9062 101.795 86.127 101.008 86.5684 100.422C87.0137 99.8359 87.6211 99.543 88.3906 99.543C89.0078 99.543 89.5176 99.7734 89.9199 100.234V97H91.6191V106H90.0898L90.0078 105.326C89.5859 105.854 89.043 106.117 88.3789 106.117C87.6328 106.117 87.0332 105.824 86.5801 105.238C86.1309 104.648 85.9062 103.83 85.9062 102.783ZM87.5996 102.906C87.5996 103.5 87.7031 103.955 87.9102 104.271C88.1172 104.588 88.418 104.746 88.8125 104.746C89.3359 104.746 89.7051 104.525 89.9199 104.084V101.582C89.709 101.141 89.3438 100.92 88.8242 100.92C88.0078 100.92 87.5996 101.582 87.5996 102.906ZM95.8496 106.117C94.9199 106.117 94.1621 105.832 93.5762 105.262C92.9941 104.691 92.7031 103.932 92.7031 102.982V102.818C92.7031 102.182 92.8262 101.613 93.0723 101.113C93.3184 100.609 93.666 100.223 94.1152 99.9531C94.5684 99.6797 95.084 99.543 95.6621 99.543C96.5293 99.543 97.2109 99.8164 97.707 100.363C98.207 100.91 98.457 101.686 98.457 102.689V103.381H94.4199C94.4746 103.795 94.6387 104.127 94.9121 104.377C95.1895 104.627 95.5391 104.752 95.9609 104.752C96.6133 104.752 97.123 104.516 97.4902 104.043L98.3223 104.975C98.0684 105.334 97.7246 105.615 97.291 105.818C96.8574 106.018 96.377 106.117 95.8496 106.117ZM95.6562 100.914C95.3203 100.914 95.0469 101.027 94.8359 101.254C94.6289 101.48 94.4961 101.805 94.4375 102.227H96.793V102.092C96.7852 101.717 96.6836 101.428 96.4883 101.225C96.293 101.018 96.0156 100.914 95.6562 100.914ZM103.971 99.6602L104.023 100.393C104.477 99.8262 105.084 99.543 105.846 99.543C106.518 99.543 107.018 99.7402 107.346 100.135C107.674 100.529 107.842 101.119 107.85 101.904V106H106.156V101.945C106.156 101.586 106.078 101.326 105.922 101.166C105.766 101.002 105.506 100.92 105.143 100.92C104.666 100.92 104.309 101.123 104.07 101.529V106H102.377V99.6602H103.971ZM112.812 106C112.734 105.848 112.678 105.658 112.643 105.432C112.232 105.889 111.699 106.117 111.043 106.117C110.422 106.117 109.906 105.938 109.496 105.578C109.09 105.219 108.887 104.766 108.887 104.219C108.887 103.547 109.135 103.031 109.631 102.672C110.131 102.312 110.852 102.131 111.793 102.127H112.572V101.764C112.572 101.471 112.496 101.236 112.344 101.061C112.195 100.885 111.959 100.797 111.635 100.797C111.35 100.797 111.125 100.865 110.961 101.002C110.801 101.139 110.721 101.326 110.721 101.564H109.027C109.027 101.197 109.141 100.857 109.367 100.545C109.594 100.232 109.914 99.9883 110.328 99.8125C110.742 99.6328 111.207 99.543 111.723 99.543C112.504 99.543 113.123 99.7402 113.58 100.135C114.041 100.525 114.271 101.076 114.271 101.787V104.535C114.275 105.137 114.359 105.592 114.523 105.9V106H112.812ZM111.412 104.822C111.662 104.822 111.893 104.768 112.104 104.658C112.314 104.545 112.471 104.395 112.572 104.207V103.117H111.939C111.092 103.117 110.641 103.41 110.586 103.996L110.58 104.096C110.58 104.307 110.654 104.48 110.803 104.617C110.951 104.754 111.154 104.822 111.412 104.822ZM119.006 104.248C119.006 104.041 118.902 103.879 118.695 103.762C118.492 103.641 118.164 103.533 117.711 103.439C116.203 103.123 115.449 102.482 115.449 101.518C115.449 100.955 115.682 100.486 116.146 100.111C116.615 99.7324 117.227 99.543 117.98 99.543C118.785 99.543 119.428 99.7324 119.908 100.111C120.393 100.49 120.635 100.982 120.635 101.588H118.941C118.941 101.346 118.863 101.146 118.707 100.99C118.551 100.83 118.307 100.75 117.975 100.75C117.689 100.75 117.469 100.814 117.312 100.943C117.156 101.072 117.078 101.236 117.078 101.436C117.078 101.623 117.166 101.775 117.342 101.893C117.521 102.006 117.822 102.105 118.244 102.191C118.666 102.273 119.021 102.367 119.311 102.473C120.205 102.801 120.652 103.369 120.652 104.178C120.652 104.756 120.404 105.225 119.908 105.584C119.412 105.939 118.771 106.117 117.986 106.117C117.455 106.117 116.982 106.023 116.568 105.836C116.158 105.645 115.836 105.385 115.602 105.057C115.367 104.725 115.25 104.367 115.25 103.984H116.855C116.871 104.285 116.982 104.516 117.189 104.676C117.396 104.836 117.674 104.916 118.021 104.916C118.346 104.916 118.59 104.855 118.754 104.734C118.922 104.609 119.006 104.447 119.006 104.248ZM124.385 104.752C124.697 104.752 124.951 104.666 125.146 104.494C125.342 104.322 125.443 104.094 125.451 103.809H127.039C127.035 104.238 126.918 104.633 126.688 104.992C126.457 105.348 126.141 105.625 125.738 105.824C125.34 106.02 124.898 106.117 124.414 106.117C123.508 106.117 122.793 105.83 122.27 105.256C121.746 104.678 121.484 103.881 121.484 102.865V102.754C121.484 101.777 121.744 100.998 122.264 100.416C122.783 99.834 123.496 99.543 124.402 99.543C125.195 99.543 125.83 99.7695 126.307 100.223C126.787 100.672 127.031 101.271 127.039 102.021H125.451C125.443 101.693 125.342 101.428 125.146 101.225C124.951 101.018 124.693 100.914 124.373 100.914C123.979 100.914 123.68 101.059 123.477 101.348C123.277 101.633 123.178 102.098 123.178 102.742V102.918C123.178 103.57 123.277 104.039 123.477 104.324C123.676 104.609 123.979 104.752 124.385 104.752ZM129.793 106H128.094V99.6602H129.793V106ZM127.994 98.0195C127.994 97.7656 128.078 97.5566 128.246 97.3926C128.418 97.2285 128.65 97.1465 128.943 97.1465C129.232 97.1465 129.463 97.2285 129.635 97.3926C129.807 97.5566 129.893 97.7656 129.893 98.0195C129.893 98.2773 129.805 98.4883 129.629 98.6523C129.457 98.8164 129.229 98.8984 128.943 98.8984C128.658 98.8984 128.428 98.8164 128.252 98.6523C128.08 98.4883 127.994 98.2773 127.994 98.0195ZM132.781 99.6602L132.834 100.369C133.283 99.8184 133.891 99.543 134.656 99.543C135.473 99.543 136.033 99.8652 136.338 100.51C136.783 99.8652 137.418 99.543 138.242 99.543C138.93 99.543 139.441 99.7441 139.777 100.146C140.113 100.545 140.281 101.146 140.281 101.951V106H138.582V101.957C138.582 101.598 138.512 101.336 138.371 101.172C138.23 101.004 137.982 100.92 137.627 100.92C137.119 100.92 136.768 101.162 136.572 101.646L136.578 106H134.885V101.963C134.885 101.596 134.812 101.33 134.668 101.166C134.523 101.002 134.277 100.92 133.93 100.92C133.449 100.92 133.102 101.119 132.887 101.518V106H131.193V99.6602H132.781ZM144.506 106.117C143.576 106.117 142.818 105.832 142.232 105.262C141.65 104.691 141.359 103.932 141.359 102.982V102.818C141.359 102.182 141.482 101.613 141.729 101.113C141.975 100.609 142.322 100.223 142.771 99.9531C143.225 99.6797 143.74 99.543 144.318 99.543C145.186 99.543 145.867 99.8164 146.363 100.363C146.863 100.91 147.113 101.686 147.113 102.689V103.381H143.076C143.131 103.795 143.295 104.127 143.568 104.377C143.846 104.627 144.195 104.752 144.617 104.752C145.27 104.752 145.779 104.516 146.146 104.043L146.979 104.975C146.725 105.334 146.381 105.615 145.947 105.818C145.514 106.018 145.033 106.117 144.506 106.117ZM144.312 100.914C143.977 100.914 143.703 101.027 143.492 101.254C143.285 101.48 143.152 101.805 143.094 102.227H145.449V102.092C145.441 101.717 145.34 101.428 145.145 101.225C144.949 101.018 144.672 100.914 144.312 100.914ZM149.639 99.6602L149.691 100.393C150.145 99.8262 150.752 99.543 151.514 99.543C152.186 99.543 152.686 99.7402 153.014 100.135C153.342 100.529 153.51 101.119 153.518 101.904V106H151.824V101.945C151.824 101.586 151.746 101.326 151.59 101.166C151.434 101.002 151.174 100.92 150.811 100.92C150.334 100.92 149.977 101.123 149.738 101.529V106H148.045V99.6602H149.639ZM156.834 98.1016V99.6602H157.918V100.902H156.834V104.066C156.834 104.301 156.879 104.469 156.969 104.57C157.059 104.672 157.23 104.723 157.484 104.723C157.672 104.723 157.838 104.709 157.982 104.682V105.965C157.65 106.066 157.309 106.117 156.957 106.117C155.77 106.117 155.164 105.518 155.141 104.318V100.902H154.215V99.6602H155.141V98.1016H156.834ZM158.422 102.771C158.422 102.143 158.543 101.582 158.785 101.09C159.027 100.598 159.375 100.217 159.828 99.9473C160.285 99.6777 160.814 99.543 161.416 99.543C162.271 99.543 162.969 99.8047 163.508 100.328C164.051 100.852 164.354 101.562 164.416 102.461L164.428 102.895C164.428 103.867 164.156 104.648 163.613 105.238C163.07 105.824 162.342 106.117 161.428 106.117C160.514 106.117 159.783 105.824 159.236 105.238C158.693 104.652 158.422 103.855 158.422 102.848V102.771ZM160.115 102.895C160.115 103.496 160.229 103.957 160.455 104.277C160.682 104.594 161.006 104.752 161.428 104.752C161.838 104.752 162.158 104.596 162.389 104.283C162.619 103.967 162.734 103.463 162.734 102.771C162.734 102.182 162.619 101.725 162.389 101.4C162.158 101.076 161.834 100.914 161.416 100.914C161.002 100.914 160.682 101.076 160.455 101.4C160.229 101.721 160.115 102.219 160.115 102.895ZM165.553 105.168C165.553 104.898 165.643 104.68 165.822 104.512C166.006 104.344 166.234 104.26 166.508 104.26C166.785 104.26 167.014 104.344 167.193 104.512C167.377 104.68 167.469 104.898 167.469 105.168C167.469 105.434 167.379 105.65 167.199 105.818C167.02 105.982 166.789 106.064 166.508 106.064C166.23 106.064 166.002 105.982 165.822 105.818C165.643 105.65 165.553 105.434 165.553 105.168ZM165.553 100.369C165.553 100.1 165.643 99.8809 165.822 99.7129C166.006 99.5449 166.234 99.4609 166.508 99.4609C166.785 99.4609 167.014 99.5449 167.193 99.7129C167.377 99.8809 167.469 100.1 167.469 100.369C167.469 100.635 167.379 100.852 167.199 101.02C167.02 101.184 166.789 101.266 166.508 101.266C166.23 101.266 166.002 101.184 165.822 101.02C165.643 100.852 165.553 100.635 165.553 100.369ZM88.877 120H83.0293V118.84L85.7891 115.898C86.168 115.484 86.4473 115.123 86.627 114.814C86.8105 114.506 86.9023 114.213 86.9023 113.936C86.9023 113.557 86.8066 113.26 86.6152 113.045C86.4238 112.826 86.1504 112.717 85.7949 112.717C85.4121 112.717 85.1094 112.85 84.8867 113.115C84.668 113.377 84.5586 113.723 84.5586 114.152H82.8594C82.8594 113.633 82.9824 113.158 83.2285 112.729C83.4785 112.299 83.8301 111.963 84.2832 111.721C84.7363 111.475 85.25 111.352 85.8242 111.352C86.7031 111.352 87.3848 111.562 87.8691 111.984C88.3574 112.406 88.6016 113.002 88.6016 113.771C88.6016 114.193 88.4922 114.623 88.2734 115.061C88.0547 115.498 87.6797 116.008 87.1484 116.59L85.209 118.635H88.877V120ZM95.4805 113.736C95.4805 114.15 95.377 114.518 95.1699 114.838C94.9629 115.158 94.6777 115.414 94.3145 115.605C94.7285 115.805 95.0566 116.08 95.2988 116.432C95.541 116.779 95.6621 117.189 95.6621 117.662C95.6621 118.42 95.4043 119.02 94.8887 119.461C94.373 119.898 93.6719 120.117 92.7852 120.117C91.8984 120.117 91.1953 119.896 90.6758 119.455C90.1562 119.014 89.8965 118.416 89.8965 117.662C89.8965 117.189 90.0176 116.777 90.2598 116.426C90.502 116.074 90.8281 115.801 91.2383 115.605C90.875 115.414 90.5898 115.158 90.3828 114.838C90.1797 114.518 90.0781 114.15 90.0781 113.736C90.0781 113.01 90.3203 112.432 90.8047 112.002C91.2891 111.568 91.9473 111.352 92.7793 111.352C93.6074 111.352 94.2637 111.566 94.748 111.996C95.2363 112.422 95.4805 113.002 95.4805 113.736ZM93.9629 117.539C93.9629 117.168 93.8555 116.871 93.6406 116.648C93.4258 116.426 93.1367 116.314 92.7734 116.314C92.4141 116.314 92.127 116.426 91.9121 116.648C91.6973 116.867 91.5898 117.164 91.5898 117.539C91.5898 117.902 91.6953 118.195 91.9062 118.418C92.1172 118.641 92.4102 118.752 92.7852 118.752C93.1523 118.752 93.4395 118.645 93.6465 118.43C93.8574 118.215 93.9629 117.918 93.9629 117.539ZM93.7871 113.818C93.7871 113.486 93.6992 113.221 93.5234 113.021C93.3477 112.818 93.0996 112.717 92.7793 112.717C92.4629 112.717 92.2168 112.814 92.041 113.01C91.8652 113.205 91.7773 113.475 91.7773 113.818C91.7773 114.158 91.8652 114.432 92.041 114.639C92.2168 114.846 92.4648 114.949 92.7852 114.949C93.1055 114.949 93.3516 114.846 93.5234 114.639C93.6992 114.432 93.7871 114.158 93.7871 113.818ZM97.4141 120.732H96.1543L99.2949 111.469H100.555L97.4141 120.732ZM105.412 120H103.719V113.473L101.697 114.1V112.723L105.23 111.457H105.412V120ZM113.932 116.473C113.932 117.652 113.688 118.555 113.199 119.18C112.711 119.805 111.996 120.117 111.055 120.117C110.125 120.117 109.414 119.811 108.922 119.197C108.43 118.584 108.178 117.705 108.166 116.561V114.99C108.166 113.799 108.412 112.895 108.904 112.277C109.4 111.66 110.113 111.352 111.043 111.352C111.973 111.352 112.684 111.658 113.176 112.271C113.668 112.881 113.92 113.758 113.932 114.902V116.473ZM112.238 114.75C112.238 114.043 112.141 113.529 111.945 113.209C111.754 112.885 111.453 112.723 111.043 112.723C110.645 112.723 110.35 112.877 110.158 113.186C109.971 113.49 109.871 113.969 109.859 114.621V116.695C109.859 117.391 109.953 117.908 110.141 118.248C110.332 118.584 110.637 118.752 111.055 118.752C111.469 118.752 111.768 118.59 111.951 118.266C112.135 117.941 112.23 117.445 112.238 116.777V114.75ZM115.684 120.732H114.424L117.564 111.469H118.824L115.684 120.732ZM125.416 120H119.568V118.84L122.328 115.898C122.707 115.484 122.986 115.123 123.166 114.814C123.35 114.506 123.441 114.213 123.441 113.936C123.441 113.557 123.346 113.26 123.154 113.045C122.963 112.826 122.689 112.717 122.334 112.717C121.951 112.717 121.648 112.85 121.426 113.115C121.207 113.377 121.098 113.723 121.098 114.152H119.398C119.398 113.633 119.521 113.158 119.768 112.729C120.018 112.299 120.369 111.963 120.822 111.721C121.275 111.475 121.789 111.352 122.363 111.352C123.242 111.352 123.924 111.562 124.408 111.984C124.896 112.406 125.141 113.002 125.141 113.771C125.141 114.193 125.031 114.623 124.812 115.061C124.594 115.498 124.219 116.008 123.688 116.59L121.748 118.635H125.416V120ZM132.201 116.473C132.201 117.652 131.957 118.555 131.469 119.18C130.98 119.805 130.266 120.117 129.324 120.117C128.395 120.117 127.684 119.811 127.191 119.197C126.699 118.584 126.447 117.705 126.436 116.561V114.99C126.436 113.799 126.682 112.895 127.174 112.277C127.67 111.66 128.383 111.352 129.312 111.352C130.242 111.352 130.953 111.658 131.445 112.271C131.938 112.881 132.189 113.758 132.201 114.902V116.473ZM130.508 114.75C130.508 114.043 130.41 113.529 130.215 113.209C130.023 112.885 129.723 112.723 129.312 112.723C128.914 112.723 128.619 112.877 128.428 113.186C128.24 113.49 128.141 113.969 128.129 114.621V116.695C128.129 117.391 128.223 117.908 128.41 118.248C128.602 118.584 128.906 118.752 129.324 118.752C129.738 118.752 130.037 118.59 130.221 118.266C130.404 117.941 130.5 117.445 130.508 116.777V114.75ZM139.092 116.473C139.092 117.652 138.848 118.555 138.359 119.18C137.871 119.805 137.156 120.117 136.215 120.117C135.285 120.117 134.574 119.811 134.082 119.197C133.59 118.584 133.338 117.705 133.326 116.561V114.99C133.326 113.799 133.572 112.895 134.064 112.277C134.561 111.66 135.273 111.352 136.203 111.352C137.133 111.352 137.844 111.658 138.336 112.271C138.828 112.881 139.08 113.758 139.092 114.902V116.473ZM137.398 114.75C137.398 114.043 137.301 113.529 137.105 113.209C136.914 112.885 136.613 112.723 136.203 112.723C135.805 112.723 135.51 112.877 135.318 113.186C135.131 113.49 135.031 113.969 135.02 114.621V116.695C135.02 117.391 135.113 117.908 135.301 118.248C135.492 118.584 135.797 118.752 136.215 118.752C136.629 118.752 136.928 118.59 137.111 118.266C137.295 117.941 137.391 117.445 137.398 116.777V114.75ZM146.088 120H140.24V118.84L143 115.898C143.379 115.484 143.658 115.123 143.838 114.814C144.021 114.506 144.113 114.213 144.113 113.936C144.113 113.557 144.018 113.26 143.826 113.045C143.635 112.826 143.361 112.717 143.006 112.717C142.623 112.717 142.32 112.85 142.098 113.115C141.879 113.377 141.77 113.723 141.77 114.152H140.07C140.07 113.633 140.193 113.158 140.439 112.729C140.689 112.299 141.041 111.963 141.494 111.721C141.947 111.475 142.461 111.352 143.035 111.352C143.914 111.352 144.596 111.562 145.08 111.984C145.568 112.406 145.812 113.002 145.812 113.771C145.812 114.193 145.703 114.623 145.484 115.061C145.266 115.498 144.891 116.008 144.359 116.59L142.42 118.635H146.088V120Z" fill="#363636"/>
</svg>
